M48
;DRILL file {KiCad 5.0.2-bee76a0~70~ubuntu18.04.1} date Po 11. února 2019, 12:00:51 CET
;FORMAT={-:-/ absolute / metric / decimal}
FMAT,2
METRIC,TZ
T1C0.400
T2C0.700
T3C0.760
T4C0.950
T5C1.000
T6C1.016
T7C1.300
%
G90
G05
T1
X108.8Y-95.7
X113.4Y-98.7
X113.8Y-83.2
X119.6Y-85.
X121.3Y-137.3
X134.4Y-84.4
X138.6Y-90.9
X141.4Y-103.3
X153.3Y-98.
X161.2Y-125.
X165.8Y-111.4
X167.4Y-111.4
X170.Y-110.4
T2
X117.Y-129.75
X151.Y-124.
X113.5Y-109.5
X155.5Y-114.25
T3
X162.56Y-127.
X163.83Y-124.46
X165.1Y-127.
X166.37Y-124.46
X167.64Y-127.
X168.91Y-124.46
X170.18Y-127.
X171.45Y-124.46
T4
X147.4Y-68.58
X149.9Y-68.58
X152.4Y-68.58
X191.77Y-109.
X191.77Y-111.5
X191.77Y-114.
X191.77Y-97.87
X191.77Y-100.37
X191.77Y-102.87
X134.7Y-68.58
X137.2Y-68.58
X139.7Y-68.58
X122.Y-68.58
X124.5Y-68.58
X127.Y-68.58
X189.865Y-120.135
X189.865Y-122.635
X189.865Y-125.135
X189.865Y-127.635
X172.8Y-68.58
X175.3Y-68.58
X177.8Y-68.58
X178.555Y-138.43
X181.055Y-138.43
X183.555Y-138.43
X186.055Y-138.43
X185.5Y-68.58
X188.Y-68.58
X190.5Y-68.58
X109.3Y-68.58
X111.8Y-68.58
X114.3Y-68.58
X160.1Y-68.58
X162.6Y-68.58
X165.1Y-68.58
T5
X145.Y-93.
X147.54Y-93.
X150.08Y-93.
X152.62Y-93.
X189.Y-93.
X191.54Y-93.
X194.08Y-93.
X196.62Y-93.
X167.Y-93.
X169.54Y-93.
X172.08Y-93.
X174.62Y-93.
X178.475Y-130.81
X180.975Y-130.81
X123.Y-93.
X125.54Y-93.
X128.08Y-93.
X130.62Y-93.
X147.Y-104.
X149.54Y-104.
X152.08Y-104.
X154.62Y-104.
X157.16Y-104.
X159.7Y-104.
X162.24Y-104.
X164.78Y-104.
X167.32Y-104.
X169.86Y-104.
X172.4Y-104.
X174.94Y-104.
X177.48Y-104.
X180.02Y-104.
X101.5Y-93.
X104.04Y-93.
X106.58Y-93.
X109.12Y-93.
T6
X142.875Y-128.27
X142.875Y-130.81
X145.415Y-128.27
X145.415Y-130.81
X147.955Y-128.27
X147.955Y-130.81
X150.495Y-128.27
X150.495Y-130.81
X153.035Y-128.27
X153.035Y-130.81
X121.92Y-128.27
X121.92Y-130.81
X124.46Y-128.27
X124.46Y-130.81
X127.Y-128.27
X127.Y-130.81
X129.54Y-128.27
X129.54Y-130.81
X132.08Y-128.27
X132.08Y-130.81
T7
X108.03Y-135.89
X113.03Y-135.89
X106.Y-98.19
X106.Y-103.19
X106.Y-108.19
X106.Y-113.19
X106.Y-118.19
X106.Y-123.19
T0
M30
