G04 #@! TF.GenerationSoftware,KiCad,Pcbnew,5.0.2-bee76a0~70~ubuntu18.04.1*
G04 #@! TF.CreationDate,2019-02-11T12:00:49+01:00*
G04 #@! TF.ProjectId,3D_PrEBo,33445f50-7245-4426-9f2e-6b696361645f,rev?*
G04 #@! TF.SameCoordinates,Original*
G04 #@! TF.FileFunction,Profile,NP*
%FSLAX46Y46*%
G04 Gerber Fmt 4.6, Leading zero omitted, Abs format (unit mm)*
G04 Created by KiCad (PCBNEW 5.0.2-bee76a0~70~ubuntu18.04.1) date Po 11. února 2019, 12:00:49 CET*
%MOMM*%
%LPD*%
G01*
G04 APERTURE LIST*
%ADD10C,0.200000*%
G04 APERTURE END LIST*
D10*
X164000000Y-82000000D02*
X164000000Y-76000000D01*
X142000000Y-76000000D02*
G75*
G02X143000000Y-75000000I1000000J0D01*
G01*
X111000000Y-83000000D02*
X101000000Y-83000000D01*
X121000000Y-83000000D02*
G75*
G02X120000000Y-82000000I0J1000000D01*
G01*
X100000000Y-63732051D02*
X100000000Y-74000000D01*
X100000000Y-84000000D02*
X100000000Y-136267949D01*
X199000000Y-83000000D02*
G75*
G02X200000000Y-84000000I0J-1000000D01*
G01*
X197000000Y-58000000D02*
G75*
G02X199920991Y-60316034I0J-3000000D01*
G01*
X134000000Y-76000000D02*
X134000000Y-82000000D01*
X200000000Y-84000000D02*
X200000000Y-136267949D01*
X100000000Y-136267949D02*
G75*
G02X100079009Y-139683966I-1000000J-1732051D01*
G01*
X156000000Y-82000000D02*
G75*
G02X155000000Y-83000000I-1000000J0D01*
G01*
X155000000Y-83000000D02*
X143000000Y-83000000D01*
X164000000Y-76000000D02*
G75*
G02X165000000Y-75000000I1000000J0D01*
G01*
X187000000Y-83000000D02*
G75*
G02X186000000Y-82000000I0J1000000D01*
G01*
X100000000Y-84000000D02*
G75*
G02X101000000Y-83000000I1000000J0D01*
G01*
X199920991Y-139683966D02*
G75*
G02X200000000Y-136267949I1079009J1683966D01*
G01*
X165000000Y-83000000D02*
G75*
G02X164000000Y-82000000I0J1000000D01*
G01*
X103000000Y-58000000D02*
X197000000Y-58000000D01*
X100079009Y-60316034D02*
G75*
G02X100000000Y-63732051I-1079009J-1683966D01*
G01*
X100079009Y-60316034D02*
G75*
G02X103000000Y-58000000I2920991J-683966D01*
G01*
X101000000Y-75000000D02*
X111000000Y-75000000D01*
X200000000Y-74000000D02*
G75*
G02X199000000Y-75000000I-1000000J0D01*
G01*
X112000000Y-76000000D02*
X112000000Y-82000000D01*
X186000000Y-76000000D02*
G75*
G02X187000000Y-75000000I1000000J0D01*
G01*
X133000000Y-83000000D02*
X121000000Y-83000000D01*
X112000000Y-82000000D02*
G75*
G02X111000000Y-83000000I-1000000J0D01*
G01*
X111000000Y-75000000D02*
G75*
G02X112000000Y-76000000I0J-1000000D01*
G01*
X133000000Y-75000000D02*
G75*
G02X134000000Y-76000000I0J-1000000D01*
G01*
X142000000Y-82000000D02*
X142000000Y-76000000D01*
X199000000Y-83000000D02*
X187000000Y-83000000D01*
X120000000Y-82000000D02*
X120000000Y-76000000D01*
X120000000Y-76000000D02*
G75*
G02X121000000Y-75000000I1000000J0D01*
G01*
X121000000Y-75000000D02*
X133000000Y-75000000D01*
X200000000Y-63732051D02*
G75*
G02X199920991Y-60316034I1000000J1732051D01*
G01*
X155000000Y-75000000D02*
G75*
G02X156000000Y-76000000I0J-1000000D01*
G01*
X143000000Y-83000000D02*
G75*
G02X142000000Y-82000000I0J1000000D01*
G01*
X156000000Y-76000000D02*
X156000000Y-82000000D01*
X178000000Y-76000000D02*
X178000000Y-82000000D01*
X103000000Y-142000000D02*
X197000000Y-142000000D01*
X101000000Y-75000000D02*
G75*
G02X100000000Y-74000000I0J1000000D01*
G01*
X134000000Y-82000000D02*
G75*
G02X133000000Y-83000000I-1000000J0D01*
G01*
X143000000Y-75000000D02*
X155000000Y-75000000D01*
X165000000Y-75000000D02*
X177000000Y-75000000D01*
X187000000Y-75000000D02*
X199000000Y-75000000D01*
X199920991Y-139683966D02*
G75*
G02X197000000Y-142000000I-2920991J683966D01*
G01*
X103000000Y-142000000D02*
G75*
G02X100079009Y-139683966I0J3000000D01*
G01*
X177000000Y-75000000D02*
G75*
G02X178000000Y-76000000I0J-1000000D01*
G01*
X178000000Y-82000000D02*
G75*
G02X177000000Y-83000000I-1000000J0D01*
G01*
X200000000Y-63732051D02*
X200000000Y-74000000D01*
X177000000Y-83000000D02*
X165000000Y-83000000D01*
X186000000Y-82000000D02*
X186000000Y-76000000D01*
M02*
