G04 #@! TF.GenerationSoftware,KiCad,Pcbnew,5.0.2-bee76a0~70~ubuntu18.04.1*
G04 #@! TF.CreationDate,2019-02-11T12:00:49+01:00*
G04 #@! TF.ProjectId,3D_PrEBo,33445f50-7245-4426-9f2e-6b696361645f,rev?*
G04 #@! TF.SameCoordinates,Original*
G04 #@! TF.FileFunction,Legend,Bot*
G04 #@! TF.FilePolarity,Positive*
%FSLAX46Y46*%
G04 Gerber Fmt 4.6, Leading zero omitted, Abs format (unit mm)*
G04 Created by KiCad (PCBNEW 5.0.2-bee76a0~70~ubuntu18.04.1) date Po 11. února 2019, 12:00:49 CET*
%MOMM*%
%LPD*%
G01*
G04 APERTURE LIST*
%ADD10C,0.200000*%
%ADD11C,0.120000*%
%ADD12C,0.150000*%
G04 APERTURE END LIST*
D10*
X186019047Y-130352380D02*
X186590476Y-130352380D01*
X186304761Y-130352380D02*
X186304761Y-129352380D01*
X186400000Y-129495238D01*
X186495238Y-129590476D01*
X186590476Y-129638095D01*
X185638095Y-129447619D02*
X185590476Y-129400000D01*
X185495238Y-129352380D01*
X185257142Y-129352380D01*
X185161904Y-129400000D01*
X185114285Y-129447619D01*
X185066666Y-129542857D01*
X185066666Y-129638095D01*
X185114285Y-129780952D01*
X185685714Y-130352380D01*
X185066666Y-130352380D01*
X184780952Y-129352380D02*
X184447619Y-130352380D01*
X184114285Y-129352380D01*
X185690476Y-135052380D02*
X186166666Y-135052380D01*
X186214285Y-135528571D01*
X186166666Y-135480952D01*
X186071428Y-135433333D01*
X185833333Y-135433333D01*
X185738095Y-135480952D01*
X185690476Y-135528571D01*
X185642857Y-135623809D01*
X185642857Y-135861904D01*
X185690476Y-135957142D01*
X185738095Y-136004761D01*
X185833333Y-136052380D01*
X186071428Y-136052380D01*
X186166666Y-136004761D01*
X186214285Y-135957142D01*
X185357142Y-135052380D02*
X185023809Y-136052380D01*
X184690476Y-135052380D01*
X164000000Y-82000000D02*
X164000000Y-76000000D01*
X142000000Y-76000000D02*
G75*
G02X143000000Y-75000000I1000000J0D01*
G01*
X111000000Y-83000000D02*
X101000000Y-83000000D01*
X121000000Y-83000000D02*
G75*
G02X120000000Y-82000000I0J1000000D01*
G01*
X100000000Y-63732051D02*
X100000000Y-74000000D01*
X100000000Y-84000000D02*
X100000000Y-136267949D01*
X199000000Y-83000000D02*
G75*
G02X200000000Y-84000000I0J-1000000D01*
G01*
X197000000Y-58000000D02*
G75*
G02X199920991Y-60316034I0J-3000000D01*
G01*
X134000000Y-76000000D02*
X134000000Y-82000000D01*
X200000000Y-84000000D02*
X200000000Y-136267949D01*
X100000000Y-136267949D02*
G75*
G02X100079009Y-139683966I-1000000J-1732051D01*
G01*
X156000000Y-82000000D02*
G75*
G02X155000000Y-83000000I-1000000J0D01*
G01*
X155000000Y-83000000D02*
X143000000Y-83000000D01*
X164000000Y-76000000D02*
G75*
G02X165000000Y-75000000I1000000J0D01*
G01*
X187000000Y-83000000D02*
G75*
G02X186000000Y-82000000I0J1000000D01*
G01*
X100000000Y-84000000D02*
G75*
G02X101000000Y-83000000I1000000J0D01*
G01*
X199920991Y-139683966D02*
G75*
G02X200000000Y-136267949I1079009J1683966D01*
G01*
X165000000Y-83000000D02*
G75*
G02X164000000Y-82000000I0J1000000D01*
G01*
X103000000Y-58000000D02*
X197000000Y-58000000D01*
X100079009Y-60316034D02*
G75*
G02X100000000Y-63732051I-1079009J-1683966D01*
G01*
X100079009Y-60316034D02*
G75*
G02X103000000Y-58000000I2920991J-683966D01*
G01*
X101000000Y-75000000D02*
X111000000Y-75000000D01*
X200000000Y-74000000D02*
G75*
G02X199000000Y-75000000I-1000000J0D01*
G01*
X112000000Y-76000000D02*
X112000000Y-82000000D01*
X186000000Y-76000000D02*
G75*
G02X187000000Y-75000000I1000000J0D01*
G01*
X133000000Y-83000000D02*
X121000000Y-83000000D01*
X112000000Y-82000000D02*
G75*
G02X111000000Y-83000000I-1000000J0D01*
G01*
X111000000Y-75000000D02*
G75*
G02X112000000Y-76000000I0J-1000000D01*
G01*
X133000000Y-75000000D02*
G75*
G02X134000000Y-76000000I0J-1000000D01*
G01*
X142000000Y-82000000D02*
X142000000Y-76000000D01*
X199000000Y-83000000D02*
X187000000Y-83000000D01*
X120000000Y-82000000D02*
X120000000Y-76000000D01*
X120000000Y-76000000D02*
G75*
G02X121000000Y-75000000I1000000J0D01*
G01*
X121000000Y-75000000D02*
X133000000Y-75000000D01*
X200000000Y-63732051D02*
G75*
G02X199920991Y-60316034I1000000J1732051D01*
G01*
X155000000Y-75000000D02*
G75*
G02X156000000Y-76000000I0J-1000000D01*
G01*
X143000000Y-83000000D02*
G75*
G02X142000000Y-82000000I0J1000000D01*
G01*
X156000000Y-76000000D02*
X156000000Y-82000000D01*
X178000000Y-76000000D02*
X178000000Y-82000000D01*
X103000000Y-142000000D02*
X197000000Y-142000000D01*
X101000000Y-75000000D02*
G75*
G02X100000000Y-74000000I0J1000000D01*
G01*
X134000000Y-82000000D02*
G75*
G02X133000000Y-83000000I-1000000J0D01*
G01*
X143000000Y-75000000D02*
X155000000Y-75000000D01*
X165000000Y-75000000D02*
X177000000Y-75000000D01*
X187000000Y-75000000D02*
X199000000Y-75000000D01*
X199920991Y-139683966D02*
G75*
G02X197000000Y-142000000I-2920991J683966D01*
G01*
X103000000Y-142000000D02*
G75*
G02X100079009Y-139683966I0J3000000D01*
G01*
X177000000Y-75000000D02*
G75*
G02X178000000Y-76000000I0J-1000000D01*
G01*
X178000000Y-82000000D02*
G75*
G02X177000000Y-83000000I-1000000J0D01*
G01*
X200000000Y-63732051D02*
X200000000Y-74000000D01*
X177000000Y-83000000D02*
X165000000Y-83000000D01*
X186000000Y-82000000D02*
X186000000Y-76000000D01*
D11*
G04 #@! TO.C,C7*
X193710000Y-126637221D02*
X193710000Y-126962779D01*
X192690000Y-126637221D02*
X192690000Y-126962779D01*
G04 #@! TO.C,C8*
X111175279Y-65490000D02*
X110849721Y-65490000D01*
X111175279Y-66510000D02*
X110849721Y-66510000D01*
G04 #@! TO.C,C9*
X123875279Y-66550000D02*
X123549721Y-66550000D01*
X123875279Y-65530000D02*
X123549721Y-65530000D01*
G04 #@! TO.C,C10*
X136575279Y-66550000D02*
X136249721Y-66550000D01*
X136575279Y-65530000D02*
X136249721Y-65530000D01*
G04 #@! TO.C,C11*
X149275279Y-65530000D02*
X148949721Y-65530000D01*
X149275279Y-66550000D02*
X148949721Y-66550000D01*
G04 #@! TO.C,C12*
X161975279Y-65530000D02*
X161649721Y-65530000D01*
X161975279Y-66550000D02*
X161649721Y-66550000D01*
G04 #@! TO.C,C13*
X174675279Y-66550000D02*
X174349721Y-66550000D01*
X174675279Y-65530000D02*
X174349721Y-65530000D01*
G04 #@! TO.C,C14*
X187375279Y-65530000D02*
X187049721Y-65530000D01*
X187375279Y-66550000D02*
X187049721Y-66550000D01*
G04 #@! TO.C,JP1*
X186620000Y-131515000D02*
X186920000Y-131815000D01*
X186920000Y-131215000D02*
X186920000Y-131815000D01*
X186620000Y-131515000D02*
X186920000Y-131215000D01*
X185720000Y-130665000D02*
X185120000Y-130665000D01*
X186420000Y-134115000D02*
X186420000Y-131315000D01*
X185120000Y-134765000D02*
X185720000Y-134765000D01*
X184420000Y-131315000D02*
X184420000Y-134115000D01*
X184420000Y-134065000D02*
G75*
G03X185120000Y-134765000I700000J0D01*
G01*
X185720000Y-134765000D02*
G75*
G03X186420000Y-134065000I0J700000D01*
G01*
X186420000Y-131365000D02*
G75*
G03X185720000Y-130665000I-700000J0D01*
G01*
X185120000Y-130665000D02*
G75*
G03X184420000Y-131365000I0J-700000D01*
G01*
G04 #@! TO.C,Q2*
X176290000Y-124120000D02*
X176290000Y-121690000D01*
X176300000Y-124140000D02*
X177300000Y-124140000D01*
X179350000Y-124140000D02*
X179350000Y-122290000D01*
X178300000Y-124140000D02*
X179350000Y-124140000D01*
G04 #@! TO.C,Q3*
X109230000Y-87310000D02*
X106800000Y-87310000D01*
X109250000Y-87300000D02*
X109250000Y-86300000D01*
X109250000Y-84250000D02*
X107400000Y-84250000D01*
X109250000Y-85300000D02*
X109250000Y-84250000D01*
G04 #@! TO.C,Q4*
X122450000Y-86300000D02*
X122450000Y-87350000D01*
X122450000Y-87350000D02*
X124300000Y-87350000D01*
X122450000Y-84300000D02*
X122450000Y-85300000D01*
X122470000Y-84290000D02*
X124900000Y-84290000D01*
G04 #@! TO.C,Q5*
X131130000Y-87310000D02*
X128700000Y-87310000D01*
X131150000Y-87300000D02*
X131150000Y-86300000D01*
X131150000Y-84250000D02*
X129300000Y-84250000D01*
X131150000Y-85300000D02*
X131150000Y-84250000D01*
G04 #@! TO.C,Q6*
X144450000Y-86300000D02*
X144450000Y-87350000D01*
X144450000Y-87350000D02*
X146300000Y-87350000D01*
X144450000Y-84300000D02*
X144450000Y-85300000D01*
X144470000Y-84290000D02*
X146900000Y-84290000D01*
G04 #@! TO.C,Q7*
X153150000Y-85300000D02*
X153150000Y-84250000D01*
X153150000Y-84250000D02*
X151300000Y-84250000D01*
X153150000Y-87300000D02*
X153150000Y-86300000D01*
X153130000Y-87310000D02*
X150700000Y-87310000D01*
G04 #@! TO.C,Q8*
X166450000Y-86300000D02*
X166450000Y-87350000D01*
X166450000Y-87350000D02*
X168300000Y-87350000D01*
X166450000Y-84300000D02*
X166450000Y-85300000D01*
X166470000Y-84290000D02*
X168900000Y-84290000D01*
G04 #@! TO.C,Q9*
X175150000Y-85300000D02*
X175150000Y-84250000D01*
X175150000Y-84250000D02*
X173300000Y-84250000D01*
X175150000Y-87300000D02*
X175150000Y-86300000D01*
X175130000Y-87310000D02*
X172700000Y-87310000D01*
G04 #@! TO.C,Q10*
X180735000Y-124120000D02*
X180735000Y-121690000D01*
X180745000Y-124140000D02*
X181745000Y-124140000D01*
X183795000Y-124140000D02*
X183795000Y-122290000D01*
X182745000Y-124140000D02*
X183795000Y-124140000D01*
G04 #@! TO.C,R2*
X177437221Y-119890000D02*
X177762779Y-119890000D01*
X177437221Y-118870000D02*
X177762779Y-118870000D01*
G04 #@! TO.C,R6*
X108137221Y-88490000D02*
X108462779Y-88490000D01*
X108137221Y-89510000D02*
X108462779Y-89510000D01*
G04 #@! TO.C,R7*
X123237221Y-89510000D02*
X123562779Y-89510000D01*
X123237221Y-88490000D02*
X123562779Y-88490000D01*
G04 #@! TO.C,R8*
X130037221Y-88490000D02*
X130362779Y-88490000D01*
X130037221Y-89510000D02*
X130362779Y-89510000D01*
G04 #@! TO.C,R9*
X145562779Y-89510000D02*
X145237221Y-89510000D01*
X145562779Y-88490000D02*
X145237221Y-88490000D01*
G04 #@! TO.C,R10*
X152037221Y-88490000D02*
X152362779Y-88490000D01*
X152037221Y-89510000D02*
X152362779Y-89510000D01*
G04 #@! TO.C,R11*
X167237221Y-89510000D02*
X167562779Y-89510000D01*
X167237221Y-88490000D02*
X167562779Y-88490000D01*
G04 #@! TO.C,R12*
X174037221Y-88490000D02*
X174362779Y-88490000D01*
X174037221Y-89510000D02*
X174362779Y-89510000D01*
G04 #@! TO.C,R13*
X182037221Y-119890000D02*
X182362779Y-119890000D01*
X182037221Y-118870000D02*
X182362779Y-118870000D01*
G04 #@! TO.C,R14*
X189537221Y-134010000D02*
X189862779Y-134010000D01*
X189537221Y-132990000D02*
X189862779Y-132990000D01*
G04 #@! TO.C,R15*
X189862779Y-132110000D02*
X189537221Y-132110000D01*
X189862779Y-131090000D02*
X189537221Y-131090000D01*
G04 #@! TD*
G04 #@! TO.C,C7*
D12*
X192127142Y-126633333D02*
X192174761Y-126585714D01*
X192222380Y-126442857D01*
X192222380Y-126347619D01*
X192174761Y-126204761D01*
X192079523Y-126109523D01*
X191984285Y-126061904D01*
X191793809Y-126014285D01*
X191650952Y-126014285D01*
X191460476Y-126061904D01*
X191365238Y-126109523D01*
X191270000Y-126204761D01*
X191222380Y-126347619D01*
X191222380Y-126442857D01*
X191270000Y-126585714D01*
X191317619Y-126633333D01*
X191222380Y-126966666D02*
X191222380Y-127633333D01*
X192222380Y-127204761D01*
G04 #@! TO.C,C8*
X111179166Y-64927142D02*
X111226785Y-64974761D01*
X111369642Y-65022380D01*
X111464880Y-65022380D01*
X111607738Y-64974761D01*
X111702976Y-64879523D01*
X111750595Y-64784285D01*
X111798214Y-64593809D01*
X111798214Y-64450952D01*
X111750595Y-64260476D01*
X111702976Y-64165238D01*
X111607738Y-64070000D01*
X111464880Y-64022380D01*
X111369642Y-64022380D01*
X111226785Y-64070000D01*
X111179166Y-64117619D01*
X110607738Y-64450952D02*
X110702976Y-64403333D01*
X110750595Y-64355714D01*
X110798214Y-64260476D01*
X110798214Y-64212857D01*
X110750595Y-64117619D01*
X110702976Y-64070000D01*
X110607738Y-64022380D01*
X110417261Y-64022380D01*
X110322023Y-64070000D01*
X110274404Y-64117619D01*
X110226785Y-64212857D01*
X110226785Y-64260476D01*
X110274404Y-64355714D01*
X110322023Y-64403333D01*
X110417261Y-64450952D01*
X110607738Y-64450952D01*
X110702976Y-64498571D01*
X110750595Y-64546190D01*
X110798214Y-64641428D01*
X110798214Y-64831904D01*
X110750595Y-64927142D01*
X110702976Y-64974761D01*
X110607738Y-65022380D01*
X110417261Y-65022380D01*
X110322023Y-64974761D01*
X110274404Y-64927142D01*
X110226785Y-64831904D01*
X110226785Y-64641428D01*
X110274404Y-64546190D01*
X110322023Y-64498571D01*
X110417261Y-64450952D01*
G04 #@! TO.C,C9*
X123879166Y-64967142D02*
X123926785Y-65014761D01*
X124069642Y-65062380D01*
X124164880Y-65062380D01*
X124307738Y-65014761D01*
X124402976Y-64919523D01*
X124450595Y-64824285D01*
X124498214Y-64633809D01*
X124498214Y-64490952D01*
X124450595Y-64300476D01*
X124402976Y-64205238D01*
X124307738Y-64110000D01*
X124164880Y-64062380D01*
X124069642Y-64062380D01*
X123926785Y-64110000D01*
X123879166Y-64157619D01*
X123402976Y-65062380D02*
X123212500Y-65062380D01*
X123117261Y-65014761D01*
X123069642Y-64967142D01*
X122974404Y-64824285D01*
X122926785Y-64633809D01*
X122926785Y-64252857D01*
X122974404Y-64157619D01*
X123022023Y-64110000D01*
X123117261Y-64062380D01*
X123307738Y-64062380D01*
X123402976Y-64110000D01*
X123450595Y-64157619D01*
X123498214Y-64252857D01*
X123498214Y-64490952D01*
X123450595Y-64586190D01*
X123402976Y-64633809D01*
X123307738Y-64681428D01*
X123117261Y-64681428D01*
X123022023Y-64633809D01*
X122974404Y-64586190D01*
X122926785Y-64490952D01*
G04 #@! TO.C,C10*
X137055357Y-64967142D02*
X137102976Y-65014761D01*
X137245833Y-65062380D01*
X137341071Y-65062380D01*
X137483928Y-65014761D01*
X137579166Y-64919523D01*
X137626785Y-64824285D01*
X137674404Y-64633809D01*
X137674404Y-64490952D01*
X137626785Y-64300476D01*
X137579166Y-64205238D01*
X137483928Y-64110000D01*
X137341071Y-64062380D01*
X137245833Y-64062380D01*
X137102976Y-64110000D01*
X137055357Y-64157619D01*
X136102976Y-65062380D02*
X136674404Y-65062380D01*
X136388690Y-65062380D02*
X136388690Y-64062380D01*
X136483928Y-64205238D01*
X136579166Y-64300476D01*
X136674404Y-64348095D01*
X135483928Y-64062380D02*
X135388690Y-64062380D01*
X135293452Y-64110000D01*
X135245833Y-64157619D01*
X135198214Y-64252857D01*
X135150595Y-64443333D01*
X135150595Y-64681428D01*
X135198214Y-64871904D01*
X135245833Y-64967142D01*
X135293452Y-65014761D01*
X135388690Y-65062380D01*
X135483928Y-65062380D01*
X135579166Y-65014761D01*
X135626785Y-64967142D01*
X135674404Y-64871904D01*
X135722023Y-64681428D01*
X135722023Y-64443333D01*
X135674404Y-64252857D01*
X135626785Y-64157619D01*
X135579166Y-64110000D01*
X135483928Y-64062380D01*
G04 #@! TO.C,C11*
X149755357Y-64967142D02*
X149802976Y-65014761D01*
X149945833Y-65062380D01*
X150041071Y-65062380D01*
X150183928Y-65014761D01*
X150279166Y-64919523D01*
X150326785Y-64824285D01*
X150374404Y-64633809D01*
X150374404Y-64490952D01*
X150326785Y-64300476D01*
X150279166Y-64205238D01*
X150183928Y-64110000D01*
X150041071Y-64062380D01*
X149945833Y-64062380D01*
X149802976Y-64110000D01*
X149755357Y-64157619D01*
X148802976Y-65062380D02*
X149374404Y-65062380D01*
X149088690Y-65062380D02*
X149088690Y-64062380D01*
X149183928Y-64205238D01*
X149279166Y-64300476D01*
X149374404Y-64348095D01*
X147850595Y-65062380D02*
X148422023Y-65062380D01*
X148136309Y-65062380D02*
X148136309Y-64062380D01*
X148231547Y-64205238D01*
X148326785Y-64300476D01*
X148422023Y-64348095D01*
G04 #@! TO.C,C12*
X162455357Y-64967142D02*
X162502976Y-65014761D01*
X162645833Y-65062380D01*
X162741071Y-65062380D01*
X162883928Y-65014761D01*
X162979166Y-64919523D01*
X163026785Y-64824285D01*
X163074404Y-64633809D01*
X163074404Y-64490952D01*
X163026785Y-64300476D01*
X162979166Y-64205238D01*
X162883928Y-64110000D01*
X162741071Y-64062380D01*
X162645833Y-64062380D01*
X162502976Y-64110000D01*
X162455357Y-64157619D01*
X161502976Y-65062380D02*
X162074404Y-65062380D01*
X161788690Y-65062380D02*
X161788690Y-64062380D01*
X161883928Y-64205238D01*
X161979166Y-64300476D01*
X162074404Y-64348095D01*
X161122023Y-64157619D02*
X161074404Y-64110000D01*
X160979166Y-64062380D01*
X160741071Y-64062380D01*
X160645833Y-64110000D01*
X160598214Y-64157619D01*
X160550595Y-64252857D01*
X160550595Y-64348095D01*
X160598214Y-64490952D01*
X161169642Y-65062380D01*
X160550595Y-65062380D01*
G04 #@! TO.C,C13*
X175155357Y-64967142D02*
X175202976Y-65014761D01*
X175345833Y-65062380D01*
X175441071Y-65062380D01*
X175583928Y-65014761D01*
X175679166Y-64919523D01*
X175726785Y-64824285D01*
X175774404Y-64633809D01*
X175774404Y-64490952D01*
X175726785Y-64300476D01*
X175679166Y-64205238D01*
X175583928Y-64110000D01*
X175441071Y-64062380D01*
X175345833Y-64062380D01*
X175202976Y-64110000D01*
X175155357Y-64157619D01*
X174202976Y-65062380D02*
X174774404Y-65062380D01*
X174488690Y-65062380D02*
X174488690Y-64062380D01*
X174583928Y-64205238D01*
X174679166Y-64300476D01*
X174774404Y-64348095D01*
X173869642Y-64062380D02*
X173250595Y-64062380D01*
X173583928Y-64443333D01*
X173441071Y-64443333D01*
X173345833Y-64490952D01*
X173298214Y-64538571D01*
X173250595Y-64633809D01*
X173250595Y-64871904D01*
X173298214Y-64967142D01*
X173345833Y-65014761D01*
X173441071Y-65062380D01*
X173726785Y-65062380D01*
X173822023Y-65014761D01*
X173869642Y-64967142D01*
G04 #@! TO.C,C14*
X187855357Y-64967142D02*
X187902976Y-65014761D01*
X188045833Y-65062380D01*
X188141071Y-65062380D01*
X188283928Y-65014761D01*
X188379166Y-64919523D01*
X188426785Y-64824285D01*
X188474404Y-64633809D01*
X188474404Y-64490952D01*
X188426785Y-64300476D01*
X188379166Y-64205238D01*
X188283928Y-64110000D01*
X188141071Y-64062380D01*
X188045833Y-64062380D01*
X187902976Y-64110000D01*
X187855357Y-64157619D01*
X186902976Y-65062380D02*
X187474404Y-65062380D01*
X187188690Y-65062380D02*
X187188690Y-64062380D01*
X187283928Y-64205238D01*
X187379166Y-64300476D01*
X187474404Y-64348095D01*
X186045833Y-64395714D02*
X186045833Y-65062380D01*
X186283928Y-64014761D02*
X186522023Y-64729047D01*
X185902976Y-64729047D01*
G04 #@! TO.C,JP1*
X186752380Y-132366666D02*
X187466666Y-132366666D01*
X187609523Y-132319047D01*
X187704761Y-132223809D01*
X187752380Y-132080952D01*
X187752380Y-131985714D01*
X187752380Y-132842857D02*
X186752380Y-132842857D01*
X186752380Y-133223809D01*
X186800000Y-133319047D01*
X186847619Y-133366666D01*
X186942857Y-133414285D01*
X187085714Y-133414285D01*
X187180952Y-133366666D01*
X187228571Y-133319047D01*
X187276190Y-133223809D01*
X187276190Y-132842857D01*
X187752380Y-134366666D02*
X187752380Y-133795238D01*
X187752380Y-134080952D02*
X186752380Y-134080952D01*
X186895238Y-133985714D01*
X186990476Y-133890476D01*
X187038095Y-133795238D01*
G04 #@! TO.C,Q2*
X176295238Y-125447619D02*
X176390476Y-125400000D01*
X176485714Y-125304761D01*
X176628571Y-125161904D01*
X176723809Y-125114285D01*
X176819047Y-125114285D01*
X176771428Y-125352380D02*
X176866666Y-125304761D01*
X176961904Y-125209523D01*
X177009523Y-125019047D01*
X177009523Y-124685714D01*
X176961904Y-124495238D01*
X176866666Y-124400000D01*
X176771428Y-124352380D01*
X176580952Y-124352380D01*
X176485714Y-124400000D01*
X176390476Y-124495238D01*
X176342857Y-124685714D01*
X176342857Y-125019047D01*
X176390476Y-125209523D01*
X176485714Y-125304761D01*
X176580952Y-125352380D01*
X176771428Y-125352380D01*
X175961904Y-124447619D02*
X175914285Y-124400000D01*
X175819047Y-124352380D01*
X175580952Y-124352380D01*
X175485714Y-124400000D01*
X175438095Y-124447619D01*
X175390476Y-124542857D01*
X175390476Y-124638095D01*
X175438095Y-124780952D01*
X176009523Y-125352380D01*
X175390476Y-125352380D01*
G04 #@! TO.C,Q3*
X110695238Y-87747619D02*
X110790476Y-87700000D01*
X110885714Y-87604761D01*
X111028571Y-87461904D01*
X111123809Y-87414285D01*
X111219047Y-87414285D01*
X111171428Y-87652380D02*
X111266666Y-87604761D01*
X111361904Y-87509523D01*
X111409523Y-87319047D01*
X111409523Y-86985714D01*
X111361904Y-86795238D01*
X111266666Y-86700000D01*
X111171428Y-86652380D01*
X110980952Y-86652380D01*
X110885714Y-86700000D01*
X110790476Y-86795238D01*
X110742857Y-86985714D01*
X110742857Y-87319047D01*
X110790476Y-87509523D01*
X110885714Y-87604761D01*
X110980952Y-87652380D01*
X111171428Y-87652380D01*
X110409523Y-86652380D02*
X109790476Y-86652380D01*
X110123809Y-87033333D01*
X109980952Y-87033333D01*
X109885714Y-87080952D01*
X109838095Y-87128571D01*
X109790476Y-87223809D01*
X109790476Y-87461904D01*
X109838095Y-87557142D01*
X109885714Y-87604761D01*
X109980952Y-87652380D01*
X110266666Y-87652380D01*
X110361904Y-87604761D01*
X110409523Y-87557142D01*
G04 #@! TO.C,Q4*
X121295238Y-87747619D02*
X121390476Y-87700000D01*
X121485714Y-87604761D01*
X121628571Y-87461904D01*
X121723809Y-87414285D01*
X121819047Y-87414285D01*
X121771428Y-87652380D02*
X121866666Y-87604761D01*
X121961904Y-87509523D01*
X122009523Y-87319047D01*
X122009523Y-86985714D01*
X121961904Y-86795238D01*
X121866666Y-86700000D01*
X121771428Y-86652380D01*
X121580952Y-86652380D01*
X121485714Y-86700000D01*
X121390476Y-86795238D01*
X121342857Y-86985714D01*
X121342857Y-87319047D01*
X121390476Y-87509523D01*
X121485714Y-87604761D01*
X121580952Y-87652380D01*
X121771428Y-87652380D01*
X120485714Y-86985714D02*
X120485714Y-87652380D01*
X120723809Y-86604761D02*
X120961904Y-87319047D01*
X120342857Y-87319047D01*
G04 #@! TO.C,Q5*
X132495238Y-87747619D02*
X132590476Y-87700000D01*
X132685714Y-87604761D01*
X132828571Y-87461904D01*
X132923809Y-87414285D01*
X133019047Y-87414285D01*
X132971428Y-87652380D02*
X133066666Y-87604761D01*
X133161904Y-87509523D01*
X133209523Y-87319047D01*
X133209523Y-86985714D01*
X133161904Y-86795238D01*
X133066666Y-86700000D01*
X132971428Y-86652380D01*
X132780952Y-86652380D01*
X132685714Y-86700000D01*
X132590476Y-86795238D01*
X132542857Y-86985714D01*
X132542857Y-87319047D01*
X132590476Y-87509523D01*
X132685714Y-87604761D01*
X132780952Y-87652380D01*
X132971428Y-87652380D01*
X131638095Y-86652380D02*
X132114285Y-86652380D01*
X132161904Y-87128571D01*
X132114285Y-87080952D01*
X132019047Y-87033333D01*
X131780952Y-87033333D01*
X131685714Y-87080952D01*
X131638095Y-87128571D01*
X131590476Y-87223809D01*
X131590476Y-87461904D01*
X131638095Y-87557142D01*
X131685714Y-87604761D01*
X131780952Y-87652380D01*
X132019047Y-87652380D01*
X132114285Y-87604761D01*
X132161904Y-87557142D01*
G04 #@! TO.C,Q6*
X143295238Y-87747619D02*
X143390476Y-87700000D01*
X143485714Y-87604761D01*
X143628571Y-87461904D01*
X143723809Y-87414285D01*
X143819047Y-87414285D01*
X143771428Y-87652380D02*
X143866666Y-87604761D01*
X143961904Y-87509523D01*
X144009523Y-87319047D01*
X144009523Y-86985714D01*
X143961904Y-86795238D01*
X143866666Y-86700000D01*
X143771428Y-86652380D01*
X143580952Y-86652380D01*
X143485714Y-86700000D01*
X143390476Y-86795238D01*
X143342857Y-86985714D01*
X143342857Y-87319047D01*
X143390476Y-87509523D01*
X143485714Y-87604761D01*
X143580952Y-87652380D01*
X143771428Y-87652380D01*
X142485714Y-86652380D02*
X142676190Y-86652380D01*
X142771428Y-86700000D01*
X142819047Y-86747619D01*
X142914285Y-86890476D01*
X142961904Y-87080952D01*
X142961904Y-87461904D01*
X142914285Y-87557142D01*
X142866666Y-87604761D01*
X142771428Y-87652380D01*
X142580952Y-87652380D01*
X142485714Y-87604761D01*
X142438095Y-87557142D01*
X142390476Y-87461904D01*
X142390476Y-87223809D01*
X142438095Y-87128571D01*
X142485714Y-87080952D01*
X142580952Y-87033333D01*
X142771428Y-87033333D01*
X142866666Y-87080952D01*
X142914285Y-87128571D01*
X142961904Y-87223809D01*
G04 #@! TO.C,Q7*
X154695238Y-87747619D02*
X154790476Y-87700000D01*
X154885714Y-87604761D01*
X155028571Y-87461904D01*
X155123809Y-87414285D01*
X155219047Y-87414285D01*
X155171428Y-87652380D02*
X155266666Y-87604761D01*
X155361904Y-87509523D01*
X155409523Y-87319047D01*
X155409523Y-86985714D01*
X155361904Y-86795238D01*
X155266666Y-86700000D01*
X155171428Y-86652380D01*
X154980952Y-86652380D01*
X154885714Y-86700000D01*
X154790476Y-86795238D01*
X154742857Y-86985714D01*
X154742857Y-87319047D01*
X154790476Y-87509523D01*
X154885714Y-87604761D01*
X154980952Y-87652380D01*
X155171428Y-87652380D01*
X154409523Y-86652380D02*
X153742857Y-86652380D01*
X154171428Y-87652380D01*
G04 #@! TO.C,Q8*
X165095238Y-87747619D02*
X165190476Y-87700000D01*
X165285714Y-87604761D01*
X165428571Y-87461904D01*
X165523809Y-87414285D01*
X165619047Y-87414285D01*
X165571428Y-87652380D02*
X165666666Y-87604761D01*
X165761904Y-87509523D01*
X165809523Y-87319047D01*
X165809523Y-86985714D01*
X165761904Y-86795238D01*
X165666666Y-86700000D01*
X165571428Y-86652380D01*
X165380952Y-86652380D01*
X165285714Y-86700000D01*
X165190476Y-86795238D01*
X165142857Y-86985714D01*
X165142857Y-87319047D01*
X165190476Y-87509523D01*
X165285714Y-87604761D01*
X165380952Y-87652380D01*
X165571428Y-87652380D01*
X164571428Y-87080952D02*
X164666666Y-87033333D01*
X164714285Y-86985714D01*
X164761904Y-86890476D01*
X164761904Y-86842857D01*
X164714285Y-86747619D01*
X164666666Y-86700000D01*
X164571428Y-86652380D01*
X164380952Y-86652380D01*
X164285714Y-86700000D01*
X164238095Y-86747619D01*
X164190476Y-86842857D01*
X164190476Y-86890476D01*
X164238095Y-86985714D01*
X164285714Y-87033333D01*
X164380952Y-87080952D01*
X164571428Y-87080952D01*
X164666666Y-87128571D01*
X164714285Y-87176190D01*
X164761904Y-87271428D01*
X164761904Y-87461904D01*
X164714285Y-87557142D01*
X164666666Y-87604761D01*
X164571428Y-87652380D01*
X164380952Y-87652380D01*
X164285714Y-87604761D01*
X164238095Y-87557142D01*
X164190476Y-87461904D01*
X164190476Y-87271428D01*
X164238095Y-87176190D01*
X164285714Y-87128571D01*
X164380952Y-87080952D01*
G04 #@! TO.C,Q9*
X176695238Y-87747619D02*
X176790476Y-87700000D01*
X176885714Y-87604761D01*
X177028571Y-87461904D01*
X177123809Y-87414285D01*
X177219047Y-87414285D01*
X177171428Y-87652380D02*
X177266666Y-87604761D01*
X177361904Y-87509523D01*
X177409523Y-87319047D01*
X177409523Y-86985714D01*
X177361904Y-86795238D01*
X177266666Y-86700000D01*
X177171428Y-86652380D01*
X176980952Y-86652380D01*
X176885714Y-86700000D01*
X176790476Y-86795238D01*
X176742857Y-86985714D01*
X176742857Y-87319047D01*
X176790476Y-87509523D01*
X176885714Y-87604761D01*
X176980952Y-87652380D01*
X177171428Y-87652380D01*
X176266666Y-87652380D02*
X176076190Y-87652380D01*
X175980952Y-87604761D01*
X175933333Y-87557142D01*
X175838095Y-87414285D01*
X175790476Y-87223809D01*
X175790476Y-86842857D01*
X175838095Y-86747619D01*
X175885714Y-86700000D01*
X175980952Y-86652380D01*
X176171428Y-86652380D01*
X176266666Y-86700000D01*
X176314285Y-86747619D01*
X176361904Y-86842857D01*
X176361904Y-87080952D01*
X176314285Y-87176190D01*
X176266666Y-87223809D01*
X176171428Y-87271428D01*
X175980952Y-87271428D01*
X175885714Y-87223809D01*
X175838095Y-87176190D01*
X175790476Y-87080952D01*
G04 #@! TO.C,Q10*
X180771428Y-125547619D02*
X180866666Y-125500000D01*
X180961904Y-125404761D01*
X181104761Y-125261904D01*
X181200000Y-125214285D01*
X181295238Y-125214285D01*
X181247619Y-125452380D02*
X181342857Y-125404761D01*
X181438095Y-125309523D01*
X181485714Y-125119047D01*
X181485714Y-124785714D01*
X181438095Y-124595238D01*
X181342857Y-124500000D01*
X181247619Y-124452380D01*
X181057142Y-124452380D01*
X180961904Y-124500000D01*
X180866666Y-124595238D01*
X180819047Y-124785714D01*
X180819047Y-125119047D01*
X180866666Y-125309523D01*
X180961904Y-125404761D01*
X181057142Y-125452380D01*
X181247619Y-125452380D01*
X179866666Y-125452380D02*
X180438095Y-125452380D01*
X180152380Y-125452380D02*
X180152380Y-124452380D01*
X180247619Y-124595238D01*
X180342857Y-124690476D01*
X180438095Y-124738095D01*
X179247619Y-124452380D02*
X179152380Y-124452380D01*
X179057142Y-124500000D01*
X179009523Y-124547619D01*
X178961904Y-124642857D01*
X178914285Y-124833333D01*
X178914285Y-125071428D01*
X178961904Y-125261904D01*
X179009523Y-125357142D01*
X179057142Y-125404761D01*
X179152380Y-125452380D01*
X179247619Y-125452380D01*
X179342857Y-125404761D01*
X179390476Y-125357142D01*
X179438095Y-125261904D01*
X179485714Y-125071428D01*
X179485714Y-124833333D01*
X179438095Y-124642857D01*
X179390476Y-124547619D01*
X179342857Y-124500000D01*
X179247619Y-124452380D01*
G04 #@! TO.C,R2*
X177766666Y-118552380D02*
X178100000Y-118076190D01*
X178338095Y-118552380D02*
X178338095Y-117552380D01*
X177957142Y-117552380D01*
X177861904Y-117600000D01*
X177814285Y-117647619D01*
X177766666Y-117742857D01*
X177766666Y-117885714D01*
X177814285Y-117980952D01*
X177861904Y-118028571D01*
X177957142Y-118076190D01*
X178338095Y-118076190D01*
X177385714Y-117647619D02*
X177338095Y-117600000D01*
X177242857Y-117552380D01*
X177004761Y-117552380D01*
X176909523Y-117600000D01*
X176861904Y-117647619D01*
X176814285Y-117742857D01*
X176814285Y-117838095D01*
X176861904Y-117980952D01*
X177433333Y-118552380D01*
X176814285Y-118552380D01*
G04 #@! TO.C,R6*
X108466666Y-90882380D02*
X108800000Y-90406190D01*
X109038095Y-90882380D02*
X109038095Y-89882380D01*
X108657142Y-89882380D01*
X108561904Y-89930000D01*
X108514285Y-89977619D01*
X108466666Y-90072857D01*
X108466666Y-90215714D01*
X108514285Y-90310952D01*
X108561904Y-90358571D01*
X108657142Y-90406190D01*
X109038095Y-90406190D01*
X107609523Y-89882380D02*
X107800000Y-89882380D01*
X107895238Y-89930000D01*
X107942857Y-89977619D01*
X108038095Y-90120476D01*
X108085714Y-90310952D01*
X108085714Y-90691904D01*
X108038095Y-90787142D01*
X107990476Y-90834761D01*
X107895238Y-90882380D01*
X107704761Y-90882380D01*
X107609523Y-90834761D01*
X107561904Y-90787142D01*
X107514285Y-90691904D01*
X107514285Y-90453809D01*
X107561904Y-90358571D01*
X107609523Y-90310952D01*
X107704761Y-90263333D01*
X107895238Y-90263333D01*
X107990476Y-90310952D01*
X108038095Y-90358571D01*
X108085714Y-90453809D01*
G04 #@! TO.C,R7*
X123566666Y-90882380D02*
X123900000Y-90406190D01*
X124138095Y-90882380D02*
X124138095Y-89882380D01*
X123757142Y-89882380D01*
X123661904Y-89930000D01*
X123614285Y-89977619D01*
X123566666Y-90072857D01*
X123566666Y-90215714D01*
X123614285Y-90310952D01*
X123661904Y-90358571D01*
X123757142Y-90406190D01*
X124138095Y-90406190D01*
X123233333Y-89882380D02*
X122566666Y-89882380D01*
X122995238Y-90882380D01*
G04 #@! TO.C,R8*
X130366666Y-90882380D02*
X130700000Y-90406190D01*
X130938095Y-90882380D02*
X130938095Y-89882380D01*
X130557142Y-89882380D01*
X130461904Y-89930000D01*
X130414285Y-89977619D01*
X130366666Y-90072857D01*
X130366666Y-90215714D01*
X130414285Y-90310952D01*
X130461904Y-90358571D01*
X130557142Y-90406190D01*
X130938095Y-90406190D01*
X129795238Y-90310952D02*
X129890476Y-90263333D01*
X129938095Y-90215714D01*
X129985714Y-90120476D01*
X129985714Y-90072857D01*
X129938095Y-89977619D01*
X129890476Y-89930000D01*
X129795238Y-89882380D01*
X129604761Y-89882380D01*
X129509523Y-89930000D01*
X129461904Y-89977619D01*
X129414285Y-90072857D01*
X129414285Y-90120476D01*
X129461904Y-90215714D01*
X129509523Y-90263333D01*
X129604761Y-90310952D01*
X129795238Y-90310952D01*
X129890476Y-90358571D01*
X129938095Y-90406190D01*
X129985714Y-90501428D01*
X129985714Y-90691904D01*
X129938095Y-90787142D01*
X129890476Y-90834761D01*
X129795238Y-90882380D01*
X129604761Y-90882380D01*
X129509523Y-90834761D01*
X129461904Y-90787142D01*
X129414285Y-90691904D01*
X129414285Y-90501428D01*
X129461904Y-90406190D01*
X129509523Y-90358571D01*
X129604761Y-90310952D01*
G04 #@! TO.C,R9*
X145566666Y-91052380D02*
X145900000Y-90576190D01*
X146138095Y-91052380D02*
X146138095Y-90052380D01*
X145757142Y-90052380D01*
X145661904Y-90100000D01*
X145614285Y-90147619D01*
X145566666Y-90242857D01*
X145566666Y-90385714D01*
X145614285Y-90480952D01*
X145661904Y-90528571D01*
X145757142Y-90576190D01*
X146138095Y-90576190D01*
X145090476Y-91052380D02*
X144900000Y-91052380D01*
X144804761Y-91004761D01*
X144757142Y-90957142D01*
X144661904Y-90814285D01*
X144614285Y-90623809D01*
X144614285Y-90242857D01*
X144661904Y-90147619D01*
X144709523Y-90100000D01*
X144804761Y-90052380D01*
X144995238Y-90052380D01*
X145090476Y-90100000D01*
X145138095Y-90147619D01*
X145185714Y-90242857D01*
X145185714Y-90480952D01*
X145138095Y-90576190D01*
X145090476Y-90623809D01*
X144995238Y-90671428D01*
X144804761Y-90671428D01*
X144709523Y-90623809D01*
X144661904Y-90576190D01*
X144614285Y-90480952D01*
G04 #@! TO.C,R10*
X152842857Y-90882380D02*
X153176190Y-90406190D01*
X153414285Y-90882380D02*
X153414285Y-89882380D01*
X153033333Y-89882380D01*
X152938095Y-89930000D01*
X152890476Y-89977619D01*
X152842857Y-90072857D01*
X152842857Y-90215714D01*
X152890476Y-90310952D01*
X152938095Y-90358571D01*
X153033333Y-90406190D01*
X153414285Y-90406190D01*
X151890476Y-90882380D02*
X152461904Y-90882380D01*
X152176190Y-90882380D02*
X152176190Y-89882380D01*
X152271428Y-90025238D01*
X152366666Y-90120476D01*
X152461904Y-90168095D01*
X151271428Y-89882380D02*
X151176190Y-89882380D01*
X151080952Y-89930000D01*
X151033333Y-89977619D01*
X150985714Y-90072857D01*
X150938095Y-90263333D01*
X150938095Y-90501428D01*
X150985714Y-90691904D01*
X151033333Y-90787142D01*
X151080952Y-90834761D01*
X151176190Y-90882380D01*
X151271428Y-90882380D01*
X151366666Y-90834761D01*
X151414285Y-90787142D01*
X151461904Y-90691904D01*
X151509523Y-90501428D01*
X151509523Y-90263333D01*
X151461904Y-90072857D01*
X151414285Y-89977619D01*
X151366666Y-89930000D01*
X151271428Y-89882380D01*
G04 #@! TO.C,R11*
X168042857Y-90882380D02*
X168376190Y-90406190D01*
X168614285Y-90882380D02*
X168614285Y-89882380D01*
X168233333Y-89882380D01*
X168138095Y-89930000D01*
X168090476Y-89977619D01*
X168042857Y-90072857D01*
X168042857Y-90215714D01*
X168090476Y-90310952D01*
X168138095Y-90358571D01*
X168233333Y-90406190D01*
X168614285Y-90406190D01*
X167090476Y-90882380D02*
X167661904Y-90882380D01*
X167376190Y-90882380D02*
X167376190Y-89882380D01*
X167471428Y-90025238D01*
X167566666Y-90120476D01*
X167661904Y-90168095D01*
X166138095Y-90882380D02*
X166709523Y-90882380D01*
X166423809Y-90882380D02*
X166423809Y-89882380D01*
X166519047Y-90025238D01*
X166614285Y-90120476D01*
X166709523Y-90168095D01*
G04 #@! TO.C,R12*
X174842857Y-90882380D02*
X175176190Y-90406190D01*
X175414285Y-90882380D02*
X175414285Y-89882380D01*
X175033333Y-89882380D01*
X174938095Y-89930000D01*
X174890476Y-89977619D01*
X174842857Y-90072857D01*
X174842857Y-90215714D01*
X174890476Y-90310952D01*
X174938095Y-90358571D01*
X175033333Y-90406190D01*
X175414285Y-90406190D01*
X173890476Y-90882380D02*
X174461904Y-90882380D01*
X174176190Y-90882380D02*
X174176190Y-89882380D01*
X174271428Y-90025238D01*
X174366666Y-90120476D01*
X174461904Y-90168095D01*
X173509523Y-89977619D02*
X173461904Y-89930000D01*
X173366666Y-89882380D01*
X173128571Y-89882380D01*
X173033333Y-89930000D01*
X172985714Y-89977619D01*
X172938095Y-90072857D01*
X172938095Y-90168095D01*
X172985714Y-90310952D01*
X173557142Y-90882380D01*
X172938095Y-90882380D01*
G04 #@! TO.C,R13*
X182842857Y-118552380D02*
X183176190Y-118076190D01*
X183414285Y-118552380D02*
X183414285Y-117552380D01*
X183033333Y-117552380D01*
X182938095Y-117600000D01*
X182890476Y-117647619D01*
X182842857Y-117742857D01*
X182842857Y-117885714D01*
X182890476Y-117980952D01*
X182938095Y-118028571D01*
X183033333Y-118076190D01*
X183414285Y-118076190D01*
X181890476Y-118552380D02*
X182461904Y-118552380D01*
X182176190Y-118552380D02*
X182176190Y-117552380D01*
X182271428Y-117695238D01*
X182366666Y-117790476D01*
X182461904Y-117838095D01*
X181557142Y-117552380D02*
X180938095Y-117552380D01*
X181271428Y-117933333D01*
X181128571Y-117933333D01*
X181033333Y-117980952D01*
X180985714Y-118028571D01*
X180938095Y-118123809D01*
X180938095Y-118361904D01*
X180985714Y-118457142D01*
X181033333Y-118504761D01*
X181128571Y-118552380D01*
X181414285Y-118552380D01*
X181509523Y-118504761D01*
X181557142Y-118457142D01*
G04 #@! TO.C,R14*
X190342857Y-135382380D02*
X190676190Y-134906190D01*
X190914285Y-135382380D02*
X190914285Y-134382380D01*
X190533333Y-134382380D01*
X190438095Y-134430000D01*
X190390476Y-134477619D01*
X190342857Y-134572857D01*
X190342857Y-134715714D01*
X190390476Y-134810952D01*
X190438095Y-134858571D01*
X190533333Y-134906190D01*
X190914285Y-134906190D01*
X189390476Y-135382380D02*
X189961904Y-135382380D01*
X189676190Y-135382380D02*
X189676190Y-134382380D01*
X189771428Y-134525238D01*
X189866666Y-134620476D01*
X189961904Y-134668095D01*
X188533333Y-134715714D02*
X188533333Y-135382380D01*
X188771428Y-134334761D02*
X189009523Y-135049047D01*
X188390476Y-135049047D01*
G04 #@! TO.C,R15*
X190342857Y-130622380D02*
X190676190Y-130146190D01*
X190914285Y-130622380D02*
X190914285Y-129622380D01*
X190533333Y-129622380D01*
X190438095Y-129670000D01*
X190390476Y-129717619D01*
X190342857Y-129812857D01*
X190342857Y-129955714D01*
X190390476Y-130050952D01*
X190438095Y-130098571D01*
X190533333Y-130146190D01*
X190914285Y-130146190D01*
X189390476Y-130622380D02*
X189961904Y-130622380D01*
X189676190Y-130622380D02*
X189676190Y-129622380D01*
X189771428Y-129765238D01*
X189866666Y-129860476D01*
X189961904Y-129908095D01*
X188485714Y-129622380D02*
X188961904Y-129622380D01*
X189009523Y-130098571D01*
X188961904Y-130050952D01*
X188866666Y-130003333D01*
X188628571Y-130003333D01*
X188533333Y-130050952D01*
X188485714Y-130098571D01*
X188438095Y-130193809D01*
X188438095Y-130431904D01*
X188485714Y-130527142D01*
X188533333Y-130574761D01*
X188628571Y-130622380D01*
X188866666Y-130622380D01*
X188961904Y-130574761D01*
X189009523Y-130527142D01*
G04 #@! TD*
M02*
